<svg xmlns="http://www.w3.org/2000/svg" xmlns:xlink="http://www.w3.org/1999/xlink" width="128" zoomAndPan="magnify" viewBox="0 0 96 95.999999" height="128" preserveAspectRatio="xMidYMid meet" version="1.0"><defs><filter x="0%" y="0%" width="100%" height="100%" id="482a4ab78c"><feColorMatrix values="0 0 0 0 1 0 0 0 0 1 0 0 0 0 1 0 0 0 1 0" color-interpolation-filters="sRGB"/></filter><g/><mask id="000faefb5d"><g filter="url(#482a4ab78c)"><rect x="-9.6" width="115.2" fill="#000000" y="-9.6" height="115.199999" fill-opacity="0.6"/></g></mask><clipPath id="b24210d150"><path d="M 0.863281 0.148438 L 18.230469 0.148438 L 18.230469 24 L 0.863281 24 Z M 0.863281 0.148438 " clip-rule="nonzero"/></clipPath><clipPath id="2904670198"><rect x="0" width="19" y="0" height="25"/></clipPath><clipPath id="85c6fdacc7"><path d="M 57.835938 8.550781 L 75.203125 8.550781 L 75.203125 32.429688 L 57.835938 32.429688 Z M 57.835938 8.550781 " clip-rule="nonzero"/></clipPath></defs><rect x="-9.6" width="115.2" fill="#ffffff" y="-9.6" height="115.199999" fill-opacity="1"/><rect x="-9.6" width="115.2" fill="#4c8c2b" y="-9.6" height="115.199999" fill-opacity="1"/><g mask="url(#000faefb5d)"><g transform="matrix(1, 0, 0, 1, 59, 10)"><g clip-path="url(#2904670198)"><g clip-path="url(#b24210d150)"><path fill="#ffffff" d="M 9.535156 0.148438 C 4.769531 0.148438 0.90625 4.15625 0.90625 9.097656 C 0.90625 14.039062 4.039062 14.394531 9.535156 23.894531 C 15.011719 14.394531 18.164062 14.039062 18.164062 9.097656 C 18.164062 4.152344 14.300781 0.148438 9.535156 0.148438 Z M 9.535156 12.476562 C 9.09375 12.46875 8.671875 12.378906 8.269531 12.199219 C 7.867188 12.023438 7.511719 11.777344 7.207031 11.460938 C 6.898438 11.144531 6.667969 10.78125 6.503906 10.371094 C 6.34375 9.960938 6.265625 9.535156 6.273438 9.097656 C 6.265625 8.65625 6.34375 8.230469 6.503906 7.824219 C 6.667969 7.414062 6.902344 7.050781 7.207031 6.734375 C 7.511719 6.417969 7.867188 6.171875 8.269531 5.996094 C 8.671875 5.816406 9.09375 5.726562 9.535156 5.71875 C 9.976562 5.726562 10.394531 5.816406 10.800781 5.996094 C 11.203125 6.171875 11.558594 6.417969 11.863281 6.734375 C 12.167969 7.050781 12.402344 7.414062 12.5625 7.824219 C 12.726562 8.230469 12.800781 8.65625 12.792969 9.097656 C 12.800781 9.535156 12.726562 9.960938 12.566406 10.371094 C 12.402344 10.78125 12.167969 11.144531 11.863281 11.460938 C 11.558594 11.777344 11.203125 12.023438 10.800781 12.199219 C 10.398438 12.378906 9.976562 12.46875 9.535156 12.476562 Z M 9.535156 12.476562 " fill-opacity="1" fill-rule="nonzero"/></g></g></g></g><g fill="#ffffff" fill-opacity="0.4"><g transform="translate(29.57136, 84.988962)"><g><path d="M 3.234375 0.546875 C 2.617188 0.546875 2.3125 0.253906 2.3125 -0.328125 L 3.234375 -8 C 3.328125 -8.53125 3.644531 -8.820312 4.1875 -8.875 C 8 -9.257812 10.515625 -9.863281 11.734375 -10.6875 C 12.953125 -11.507812 13.5625 -13.140625 13.5625 -15.578125 C 13.5625 -18.023438 12.9375 -21.207031 11.6875 -25.125 C 10.445312 -29.050781 9.644531 -31.664062 9.28125 -32.96875 C 8.101562 -37.125 7.515625 -40.523438 7.515625 -43.171875 C 7.515625 -45.828125 7.941406 -48.09375 8.796875 -49.96875 C 9.648438 -51.851562 10.875 -53.359375 12.46875 -54.484375 C 15.550781 -56.640625 19.691406 -57.71875 24.890625 -57.71875 C 25.554688 -57.71875 25.890625 -57.410156 25.890625 -56.796875 L 24.890625 -49.203125 C 24.796875 -48.597656 24.492188 -48.269531 23.984375 -48.21875 C 19.234375 -47.894531 16.859375 -46.488281 16.859375 -44 C 16.859375 -41.695312 17.867188 -37.175781 19.890625 -30.4375 C 21.910156 -23.707031 22.921875 -18.890625 22.921875 -15.984375 C 22.921875 -4.960938 16.359375 0.546875 3.234375 0.546875 Z M 3.234375 0.546875 "/></g></g></g><g fill="#ffffff" fill-opacity="1"><g transform="translate(26.252253, 81.669855)"><g><path d="M 3.234375 0.546875 C 2.617188 0.546875 2.3125 0.253906 2.3125 -0.328125 L 3.234375 -8 C 3.328125 -8.53125 3.644531 -8.820312 4.1875 -8.875 C 8 -9.257812 10.515625 -9.863281 11.734375 -10.6875 C 12.953125 -11.507812 13.5625 -13.140625 13.5625 -15.578125 C 13.5625 -18.023438 12.9375 -21.207031 11.6875 -25.125 C 10.445312 -29.050781 9.644531 -31.664062 9.28125 -32.96875 C 8.101562 -37.125 7.515625 -40.523438 7.515625 -43.171875 C 7.515625 -45.828125 7.941406 -48.09375 8.796875 -49.96875 C 9.648438 -51.851562 10.875 -53.359375 12.46875 -54.484375 C 15.550781 -56.640625 19.691406 -57.71875 24.890625 -57.71875 C 25.554688 -57.71875 25.890625 -57.410156 25.890625 -56.796875 L 24.890625 -49.203125 C 24.796875 -48.597656 24.492188 -48.269531 23.984375 -48.21875 C 19.234375 -47.894531 16.859375 -46.488281 16.859375 -44 C 16.859375 -41.695312 17.867188 -37.175781 19.890625 -30.4375 C 21.910156 -23.707031 22.921875 -18.890625 22.921875 -15.984375 C 22.921875 -4.960938 16.359375 0.546875 3.234375 0.546875 Z M 3.234375 0.546875 "/></g></g></g><g clip-path="url(#85c6fdacc7)"><path fill="#ffffff" d="M 66.507812 8.550781 C 61.742188 8.550781 57.878906 12.554688 57.878906 17.496094 C 57.878906 22.4375 61.011719 22.796875 66.507812 32.292969 C 71.984375 22.796875 75.136719 22.441406 75.136719 17.496094 C 75.136719 12.550781 71.273438 8.550781 66.507812 8.550781 Z M 66.507812 20.878906 C 66.066406 20.867188 65.644531 20.777344 65.242188 20.601562 C 64.835938 20.425781 64.484375 20.179688 64.175781 19.859375 C 63.871094 19.542969 63.636719 19.179688 63.476562 18.769531 C 63.316406 18.359375 63.238281 17.9375 63.246094 17.496094 C 63.238281 17.054688 63.316406 16.632812 63.476562 16.222656 C 63.640625 15.8125 63.871094 15.449219 64.179688 15.132812 C 64.484375 14.816406 64.839844 14.570312 65.242188 14.394531 C 65.644531 14.21875 66.066406 14.125 66.507812 14.117188 C 66.945312 14.125 67.367188 14.21875 67.773438 14.394531 C 68.175781 14.570312 68.53125 14.816406 68.835938 15.132812 C 69.140625 15.449219 69.375 15.8125 69.535156 16.222656 C 69.695312 16.632812 69.773438 17.054688 69.765625 17.496094 C 69.773438 17.9375 69.699219 18.359375 69.535156 18.769531 C 69.375 19.179688 69.140625 19.542969 68.835938 19.859375 C 68.53125 20.179688 68.175781 20.425781 67.773438 20.601562 C 67.367188 20.777344 66.945312 20.867188 66.507812 20.878906 Z M 66.507812 20.878906 " fill-opacity="1" fill-rule="nonzero"/></g></svg>