<svg xmlns="http://www.w3.org/2000/svg" xmlns:xlink="http://www.w3.org/1999/xlink" width="257" zoomAndPan="magnify" viewBox="0 0 192.75 192.749995" height="257" preserveAspectRatio="xMidYMid meet" version="1.0"><defs><g/><clipPath id="9208b13c17"><path d="M 0 0 L 192.5 0 L 192.5 192.5 L 0 192.5 Z M 0 0 " clip-rule="nonzero"/></clipPath><clipPath id="82ca7addf4"><path d="M 116 123 L 139 123 L 139 128 L 116 128 Z M 116 123 " clip-rule="nonzero"/></clipPath><clipPath id="1f28ad264c"><path d="M 115.972656 124.628906 L 138.28125 123.0625 L 138.472656 125.78125 L 116.164062 127.347656 Z M 115.972656 124.628906 " clip-rule="nonzero"/></clipPath><clipPath id="cd233daa1e"><path d="M 117.332031 124.53125 L 136.910156 123.160156 C 137.269531 123.132812 137.625 123.253906 137.898438 123.492188 C 138.171875 123.726562 138.339844 124.0625 138.367188 124.425781 C 138.390625 124.785156 138.273438 125.140625 138.035156 125.414062 C 137.796875 125.6875 137.460938 125.855469 137.101562 125.878906 L 117.523438 127.253906 C 117.164062 127.277344 116.804688 127.160156 116.535156 126.921875 C 116.261719 126.683594 116.09375 126.347656 116.066406 125.988281 C 116.042969 125.628906 116.160156 125.269531 116.398438 125 C 116.636719 124.726562 116.972656 124.558594 117.332031 124.53125 Z M 117.332031 124.53125 " clip-rule="nonzero"/></clipPath><clipPath id="b7530d81a1"><path d="M 101 52 L 111 52 L 111 66 L 101 66 Z M 101 52 " clip-rule="nonzero"/></clipPath><clipPath id="510807c7c9"><path d="M 101.625 52.460938 L 110.746094 52.339844 L 110.914062 65.03125 L 101.792969 65.152344 Z M 101.625 52.460938 " clip-rule="nonzero"/></clipPath><clipPath id="fc94e651f9"><path d="M 101.625 52.460938 L 110.746094 52.339844 L 110.914062 65.03125 L 101.792969 65.152344 Z M 101.625 52.460938 " clip-rule="nonzero"/></clipPath></defs><g clip-path="url(#9208b13c17)"><path fill="#ffffff" d="M 0 0 L 192.5 0 L 192.5 192.5 L 0 192.5 Z M 0 0 " fill-opacity="1" fill-rule="nonzero"/><path fill="#4c8c2b" d="M 0 0 L 192.5 0 L 192.5 192.5 L 0 192.5 Z M 0 0 " fill-opacity="1" fill-rule="nonzero"/></g><g clip-path="url(#82ca7addf4)"><g clip-path="url(#1f28ad264c)"><g clip-path="url(#cd233daa1e)"><path fill="#ffffff" d="M 115.972656 124.628906 L 138.269531 123.0625 L 138.460938 125.785156 L 116.164062 127.347656 Z M 115.972656 124.628906 " fill-opacity="1" fill-rule="nonzero"/></g></g></g><g clip-path="url(#b7530d81a1)"><g clip-path="url(#510807c7c9)"><g clip-path="url(#fc94e651f9)"><path fill="#ffffff" d="M 106.257812 52.402344 C 103.710938 52.433594 101.675781 54.601562 101.707031 57.242188 C 101.742188 59.882812 103.421875 60.054688 106.425781 65.089844 C 109.285156 59.976562 110.964844 59.761719 110.929688 57.121094 C 110.894531 54.480469 108.804688 52.367188 106.257812 52.402344 Z M 106.34375 58.988281 C 106.109375 58.988281 105.882812 58.941406 105.664062 58.851562 C 105.449219 58.757812 105.257812 58.628906 105.089844 58.460938 C 104.925781 58.296875 104.796875 58.101562 104.710938 57.882812 C 104.621094 57.667969 104.578125 57.441406 104.578125 57.203125 C 104.570312 56.96875 104.609375 56.742188 104.691406 56.523438 C 104.777344 56.300781 104.898438 56.105469 105.058594 55.933594 C 105.21875 55.765625 105.40625 55.628906 105.621094 55.53125 C 105.835938 55.4375 106.0625 55.382812 106.296875 55.375 C 106.53125 55.378906 106.757812 55.425781 106.972656 55.515625 C 107.191406 55.605469 107.382812 55.734375 107.546875 55.902344 C 107.714844 56.070312 107.839844 56.261719 107.929688 56.480469 C 108.019531 56.699219 108.0625 56.921875 108.0625 57.160156 C 108.070312 57.394531 108.03125 57.621094 107.949219 57.84375 C 107.863281 58.0625 107.742188 58.257812 107.582031 58.429688 C 107.421875 58.601562 107.234375 58.734375 107.019531 58.832031 C 106.804688 58.929688 106.578125 58.980469 106.34375 58.988281 Z M 106.34375 58.988281 " fill-opacity="1" fill-rule="nonzero"/></g></g></g><g fill="#ffffff" fill-opacity="1"><g transform="translate(22.68992, 107.278627)"><g><path d="M 1.96875 0.1875 C 1.59375 0.21875 1.394531 0.0546875 1.375 -0.296875 L 1.609375 -4.953125 C 1.640625 -5.273438 1.816406 -5.460938 2.140625 -5.515625 C 4.410156 -5.910156 5.898438 -6.378906 6.609375 -6.921875 C 7.316406 -7.472656 7.617188 -8.484375 7.515625 -9.953125 C 7.410156 -11.421875 6.894531 -13.3125 5.96875 -15.625 C 5.050781 -17.9375 4.457031 -19.472656 4.1875 -20.234375 C 3.300781 -22.671875 2.800781 -24.6875 2.6875 -26.28125 C 2.582031 -27.882812 2.742188 -29.269531 3.171875 -30.4375 C 3.609375 -31.601562 4.285156 -32.5625 5.203125 -33.3125 C 6.960938 -34.738281 9.410156 -35.5625 12.546875 -35.78125 C 12.941406 -35.8125 13.15625 -35.644531 13.1875 -35.28125 L 12.90625 -30.65625 C 12.875 -30.28125 12.707031 -30.066406 12.40625 -30.015625 C 9.550781 -29.628906 8.175781 -28.691406 8.28125 -27.203125 C 8.375 -25.816406 9.171875 -23.140625 10.671875 -19.171875 C 12.179688 -15.203125 13 -12.335938 13.125 -10.578125 C 13.582031 -3.953125 9.863281 -0.363281 1.96875 0.1875 Z M 1.96875 0.1875 "/></g></g></g><g fill="#ffffff" fill-opacity="1"><g transform="translate(38.445446, 106.17346)"><g><path d="M 15.4375 -16.25 L 8.59375 -15.5 L 8.203125 -6.390625 L 16.625 -7.265625 C 17.007812 -7.273438 17.210938 -7.09375 17.234375 -6.71875 L 16.984375 -2.125 C 16.972656 -1.8125 16.789062 -1.609375 16.4375 -1.515625 L 2.921875 -0.109375 C 2.597656 -0.0859375 2.429688 -0.21875 2.421875 -0.5 L 3.890625 -34.15625 C 3.921875 -34.46875 4.09375 -34.648438 4.40625 -34.703125 L 16.484375 -35.96875 C 16.847656 -35.945312 17.039062 -35.757812 17.0625 -35.40625 L 16.84375 -30.796875 C 16.820312 -30.429688 16.640625 -30.21875 16.296875 -30.15625 L 9.21875 -29.453125 L 8.84375 -21.203125 L 15.625 -21.921875 C 16 -21.929688 16.203125 -21.75 16.234375 -21.375 L 15.984375 -16.859375 C 15.941406 -16.503906 15.757812 -16.300781 15.4375 -16.25 Z M 15.4375 -16.25 "/></g></g></g><g fill="#ffffff" fill-opacity="1"><g transform="translate(58.415689, 104.772653)"><g><path d="M 21.09375 -35.578125 L 19.640625 -2.078125 C 19.597656 -1.742188 19.414062 -1.550781 19.09375 -1.5 L 14.75 -0.9375 C 14.5 -0.925781 14.34375 -1.054688 14.28125 -1.328125 L 7.984375 -24.5625 L 7.984375 -1.1875 C 8.003906 -0.832031 7.828125 -0.628906 7.453125 -0.578125 L 2.921875 -0.109375 C 2.597656 -0.0859375 2.429688 -0.21875 2.421875 -0.5 L 3.890625 -34.15625 C 3.921875 -34.46875 4.09375 -34.648438 4.40625 -34.703125 L 8.875 -35.265625 C 9.082031 -35.273438 9.21875 -35.238281 9.28125 -35.15625 C 9.351562 -35.082031 9.425781 -34.953125 9.5 -34.765625 L 15.53125 -12.8125 L 15.53125 -34.96875 C 15.519531 -35.289062 15.703125 -35.472656 16.078125 -35.515625 L 20.453125 -36.078125 C 20.847656 -36.097656 21.0625 -35.929688 21.09375 -35.578125 Z M 21.09375 -35.578125 "/></g></g></g><g fill="#ffffff" fill-opacity="1"><g transform="translate(82.357913, 103.093234)"><g><path d="M 2.109375 -34.453125 L 16.375 -35.953125 C 16.71875 -35.972656 16.898438 -35.804688 16.921875 -35.453125 L 16.65625 -30.875 C 16.644531 -30.65625 16.609375 -30.5 16.546875 -30.40625 C 16.484375 -30.3125 16.347656 -30.25 16.140625 -30.21875 L 11.890625 -29.75 L 10.625 -1.375 C 10.613281 -1.019531 10.4375 -0.816406 10.09375 -0.765625 L 5.515625 -0.296875 C 5.222656 -0.273438 5.070312 -0.40625 5.0625 -0.6875 L 6.328125 -29.1875 L 1.921875 -28.765625 C 1.554688 -28.753906 1.363281 -28.90625 1.34375 -29.21875 L 1.5625 -33.859375 C 1.550781 -34.210938 1.734375 -34.410156 2.109375 -34.453125 Z M 2.109375 -34.453125 "/></g></g></g><g fill="#ffffff" fill-opacity="1"><g transform="translate(99.83463, 101.867335)"><g><path d="M 9.421875 -34.671875 L 7.984375 -1.1875 C 7.972656 -0.832031 7.796875 -0.628906 7.453125 -0.578125 L 2.921875 -0.109375 C 2.597656 -0.0859375 2.429688 -0.21875 2.421875 -0.5 L 3.890625 -34.15625 C 3.921875 -34.46875 4.09375 -34.648438 4.40625 -34.703125 L 8.828125 -35.15625 C 9.203125 -35.175781 9.398438 -35.015625 9.421875 -34.671875 Z M 9.421875 -34.671875 "/></g></g></g><g fill="#ffffff" fill-opacity="1"><g transform="translate(112.125709, 101.005181)"><g><path d="M 15.4375 -16.25 L 8.59375 -15.5 L 8.203125 -6.390625 L 16.625 -7.265625 C 17.007812 -7.273438 17.210938 -7.09375 17.234375 -6.71875 L 16.984375 -2.125 C 16.972656 -1.8125 16.789062 -1.609375 16.4375 -1.515625 L 2.921875 -0.109375 C 2.597656 -0.0859375 2.429688 -0.21875 2.421875 -0.5 L 3.890625 -34.15625 C 3.921875 -34.46875 4.09375 -34.648438 4.40625 -34.703125 L 16.484375 -35.96875 C 16.847656 -35.945312 17.039062 -35.757812 17.0625 -35.40625 L 16.84375 -30.796875 C 16.820312 -30.429688 16.640625 -30.21875 16.296875 -30.15625 L 9.21875 -29.453125 L 8.84375 -21.203125 L 15.625 -21.921875 C 16 -21.929688 16.203125 -21.75 16.234375 -21.375 L 15.984375 -16.859375 C 15.941406 -16.503906 15.757812 -16.300781 15.4375 -16.25 Z M 15.4375 -16.25 "/></g></g></g><g fill="#ffffff" fill-opacity="1"><g transform="translate(132.095952, 99.604374)"><g><path d="M 21.171875 -2.015625 C 21.191406 -1.722656 21.003906 -1.5625 20.609375 -1.53125 L 15.65625 -1 C 15.425781 -1.007812 15.253906 -1.140625 15.140625 -1.390625 L 8.59375 -15.046875 L 8.03125 -1.1875 C 8.019531 -0.832031 7.851562 -0.632812 7.53125 -0.59375 L 2.921875 -0.109375 C 2.597656 -0.117188 2.429688 -0.25 2.421875 -0.5 L 3.890625 -33.984375 C 3.898438 -34.242188 3.953125 -34.425781 4.046875 -34.53125 C 4.140625 -34.632812 4.910156 -34.800781 6.359375 -35.03125 C 7.816406 -35.257812 9.757812 -35.457031 12.1875 -35.625 C 14.613281 -35.800781 16.53125 -35.289062 17.9375 -34.09375 C 19.34375 -32.894531 20.113281 -31.28125 20.25 -29.25 C 20.394531 -27.21875 20.28125 -25.40625 19.90625 -23.8125 C 19.53125 -22.226562 18.820312 -20.78125 17.78125 -19.46875 C 16.75 -18.15625 15.421875 -17.144531 13.796875 -16.4375 L 21.078125 -2.28125 C 21.128906 -2.1875 21.160156 -2.097656 21.171875 -2.015625 Z M 9.25 -30.25 L 8.78125 -19.1875 C 11.5 -19.550781 13.289062 -20.925781 14.15625 -23.3125 C 14.625 -24.601562 14.8125 -25.898438 14.71875 -27.203125 C 14.625 -28.503906 14.289062 -29.394531 13.71875 -29.875 C 13.144531 -30.363281 12.347656 -30.570312 11.328125 -30.5 C 10.316406 -30.425781 9.625 -30.34375 9.25 -30.25 Z M 9.25 -30.25 "/></g></g></g><g fill="#ffffff" fill-opacity="1"><g transform="translate(154.868637, 98.006991)"><g><path d="M 1.96875 0.1875 C 1.59375 0.21875 1.394531 0.0546875 1.375 -0.296875 L 1.609375 -4.953125 C 1.640625 -5.273438 1.816406 -5.460938 2.140625 -5.515625 C 4.410156 -5.910156 5.898438 -6.378906 6.609375 -6.921875 C 7.316406 -7.472656 7.617188 -8.484375 7.515625 -9.953125 C 7.410156 -11.421875 6.894531 -13.3125 5.96875 -15.625 C 5.050781 -17.9375 4.457031 -19.472656 4.1875 -20.234375 C 3.300781 -22.671875 2.800781 -24.6875 2.6875 -26.28125 C 2.582031 -27.882812 2.742188 -29.269531 3.171875 -30.4375 C 3.609375 -31.601562 4.285156 -32.5625 5.203125 -33.3125 C 6.960938 -34.738281 9.410156 -35.5625 12.546875 -35.78125 C 12.941406 -35.8125 13.15625 -35.644531 13.1875 -35.28125 L 12.90625 -30.65625 C 12.875 -30.28125 12.707031 -30.066406 12.40625 -30.015625 C 9.550781 -29.628906 8.175781 -28.691406 8.28125 -27.203125 C 8.375 -25.816406 9.171875 -23.140625 10.671875 -19.171875 C 12.179688 -15.203125 13 -12.335938 13.125 -10.578125 C 13.582031 -3.953125 9.863281 -0.363281 1.96875 0.1875 Z M 1.96875 0.1875 "/></g></g></g><g fill="#ffffff" fill-opacity="1"><g transform="translate(24.802695, 137.344657)"><g><path d="M 6.125 1.203125 C 9.75 0.953125 13.375 -3.09375 15.703125 -7.1875 C 15.671875 -7.546875 15.21875 -7.8125 14.96875 -7.796875 C 12.59375 -3.9375 9.34375 -1.09375 6.109375 -0.875 C 4.328125 -0.75 3.5 -1.515625 3.390625 -3.046875 C 3.0625 -7.9375 8.5 -15.390625 11.53125 -15.59375 C 12.1875 -15.640625 12.625 -15.296875 12.671875 -14.578125 C 12.78125 -13.0625 11.03125 -10.390625 9.71875 -9.53125 C 10.109375 -9.328125 10.515625 -9.265625 10.953125 -9.296875 C 12.875 -9.421875 14.9375 -11.765625 14.78125 -13.9375 C 14.640625 -16.09375 12.359375 -17.1875 10.5 -17.046875 C 5.9375 -16.734375 0.4375 -8.6875 0.796875 -3.546875 C 1.015625 -0.515625 3.421875 1.390625 6.125 1.203125 Z M 6.125 1.203125 "/></g></g></g><g fill="#ffffff" fill-opacity="1"><g transform="translate(37.564084, 136.449513)"><g><path d="M 3.296875 0.609375 C 4.546875 0.53125 6.453125 -3.015625 7.875 -5.875 L 8.09375 -5.796875 C 7.765625 -4.59375 7.53125 -3.765625 7.578125 -3.015625 C 7.6875 -1.40625 8.96875 -0.515625 9.8125 -0.578125 C 11.625 -0.703125 14.203125 -5.34375 15.140625 -7.15625 C 15.109375 -7.484375 14.6875 -7.78125 14.375 -7.765625 C 12.40625 -4.234375 11.203125 -2.78125 10.484375 -2.734375 C 10.15625 -2.703125 9.984375 -3.015625 9.953125 -3.484375 C 9.828125 -5.203125 11.4375 -9.421875 12.28125 -10.328125 C 12.34375 -10.375 12.34375 -10.4375 12.34375 -10.515625 C 12.3125 -10.921875 11.375 -11.515625 10.40625 -11.453125 C 10.125 -11.4375 9.875 -11.359375 9.765625 -11.109375 C 8.546875 -9.09375 4.8125 -1.8125 3.4375 -1.71875 C 3.265625 -1.703125 3.203125 -1.859375 3.1875 -2.109375 C 3.078125 -3.578125 5.1875 -8.734375 6.296875 -9.828125 C 6.375 -9.921875 6.40625 -9.96875 6.390625 -10.0625 C 6.359375 -10.46875 5.5625 -11.140625 4.75 -11.09375 C 3.734375 -11.015625 0.515625 -4.796875 0.703125 -2 C 0.8125 -0.4375 2.140625 0.703125 3.296875 0.609375 Z M 3.296875 0.609375 "/></g></g></g><g fill="#ffffff" fill-opacity="1"><g transform="translate(49.741952, 135.595301)"><g><path d="M 3 0.484375 C 5.140625 0.328125 7.796875 -4.890625 8.765625 -6.703125 C 8.734375 -7.0625 8.265625 -7.328125 8.015625 -7.3125 C 6.09375 -3.90625 4.5 -1.625 3.625 -1.5625 C 3.375 -1.546875 3.203125 -1.765625 3.171875 -2.171875 C 3 -4.671875 7.28125 -14.328125 8.5625 -15.1875 C 8.671875 -15.25 8.703125 -15.328125 8.703125 -15.40625 C 8.671875 -15.84375 7.8125 -16.609375 6.953125 -16.546875 C 5.65625 -16.453125 0.515625 -4.984375 0.734375 -1.875 C 0.828125 -0.546875 1.953125 0.546875 3 0.484375 Z M 3 0.484375 "/></g></g></g><g fill="#ffffff" fill-opacity="1"><g transform="translate(55.551807, 135.18777)"><g><path d="M 9.546875 -7.421875 C 7.8125 -4.4375 5.390625 -1.65625 3.859375 -1.546875 C 3.53125 -1.515625 3.359375 -1.78125 3.328125 -2.203125 C 3.234375 -3.6875 4.421875 -6.796875 5.765625 -9.46875 C 6.953125 -9.59375 8.171875 -9.71875 8.859375 -9.765625 C 8.921875 -9.84375 8.953125 -9.984375 8.9375 -10.171875 C 8.90625 -10.609375 8.578125 -11.203125 7.59375 -11.125 C 7.34375 -11.109375 6.984375 -11.09375 6.59375 -11.046875 C 7.453125 -12.609375 8.265625 -13.78125 8.703125 -14.09375 C 8.796875 -14.15625 8.8125 -14.21875 8.8125 -14.3125 C 8.78125 -14.71875 7.9375 -15.5 7.078125 -15.4375 C 6.515625 -15.40625 5.15625 -13.3125 3.859375 -10.71875 C 2.96875 -10.640625 2.25 -10.53125 1.921875 -10.484375 C 1.8125 -10.296875 1.765625 -10.109375 1.78125 -9.9375 C 1.8125 -9.515625 2.171875 -9.140625 2.6875 -9.171875 L 3.09375 -9.203125 C 1.796875 -6.375 0.734375 -3.328125 0.84375 -1.8125 C 0.9375 -0.4375 2.078125 0.546875 3.265625 0.46875 C 5.9375 0.28125 9.234375 -4.828125 10.3125 -6.8125 C 10.28125 -7.140625 9.859375 -7.4375 9.546875 -7.421875 Z M 9.546875 -7.421875 "/></g></g></g><g fill="#ffffff" fill-opacity="1"><g transform="translate(62.90927, 134.671683)"><g><path d="M 3.296875 0.609375 C 4.546875 0.53125 6.453125 -3.015625 7.875 -5.875 L 8.09375 -5.796875 C 7.765625 -4.59375 7.53125 -3.765625 7.578125 -3.015625 C 7.6875 -1.40625 8.96875 -0.515625 9.8125 -0.578125 C 11.625 -0.703125 14.203125 -5.34375 15.140625 -7.15625 C 15.109375 -7.484375 14.6875 -7.78125 14.375 -7.765625 C 12.40625 -4.234375 11.203125 -2.78125 10.484375 -2.734375 C 10.15625 -2.703125 9.984375 -3.015625 9.953125 -3.484375 C 9.828125 -5.203125 11.4375 -9.421875 12.28125 -10.328125 C 12.34375 -10.375 12.34375 -10.4375 12.34375 -10.515625 C 12.3125 -10.921875 11.375 -11.515625 10.40625 -11.453125 C 10.125 -11.4375 9.875 -11.359375 9.765625 -11.109375 C 8.546875 -9.09375 4.8125 -1.8125 3.4375 -1.71875 C 3.265625 -1.703125 3.203125 -1.859375 3.1875 -2.109375 C 3.078125 -3.578125 5.1875 -8.734375 6.296875 -9.828125 C 6.375 -9.921875 6.40625 -9.96875 6.390625 -10.0625 C 6.359375 -10.46875 5.5625 -11.140625 4.75 -11.09375 C 3.734375 -11.015625 0.515625 -4.796875 0.703125 -2 C 0.8125 -0.4375 2.140625 0.703125 3.296875 0.609375 Z M 3.296875 0.609375 "/></g></g></g><g fill="#ffffff" fill-opacity="1"><g transform="translate(75.087137, 133.81747)"><g><path d="M 11.296875 -7.546875 C 10.4375 -6.015625 7.6875 -1.765625 6.375 -1.671875 C 6.140625 -1.65625 6.015625 -1.765625 6 -1.96875 C 5.921875 -3.0625 8.328125 -6.84375 8.21875 -8.375 C 8.109375 -9.875 5.5625 -9.859375 5.515625 -10.421875 C 5.5 -10.6875 5.921875 -11.25 6.515625 -11.875 C 6.734375 -12.296875 5.40625 -13.125 4.84375 -13.09375 C 4.109375 -13.03125 3.25 -11.71875 3.3125 -10.78125 C 3.328125 -10.46875 3.453125 -10.265625 3.625 -10.0625 C 3.296875 -9.140625 2.765625 -8 2.203125 -6.90625 C 2.21875 -6.578125 2.65625 -6.28125 2.953125 -6.296875 C 3.59375 -7.546875 4.140625 -8.609375 4.578125 -9.5 C 5.140625 -9.265625 5.671875 -9.015625 5.703125 -8.515625 C 5.78125 -7.265625 3.15625 -4.21875 3.3125 -1.96875 C 3.421875 -0.546875 4.59375 0.5 5.71875 0.421875 C 7.453125 0.296875 9.59375 -2.625 12.0625 -6.9375 C 12.03125 -7.296875 11.5625 -7.5625 11.296875 -7.546875 Z M 11.296875 -7.546875 "/></g></g></g><g fill="#ffffff" fill-opacity="1"><g transform="translate(84.195166, 133.178591)"><g><path d="M 11.40625 -7.546875 C 9.234375 -3.78125 6.15625 -1.5 4.40625 -1.375 C 3.5625 -1.3125 3.1875 -1.84375 3.140625 -2.53125 L 3.125 -2.59375 C 6.109375 -3.671875 9.484375 -7.625 9.328125 -9.75 C 9.25 -10.875 8.125 -11.84375 6.859375 -11.75 C 3.859375 -11.546875 0.390625 -5.46875 0.59375 -2.40625 C 0.734375 -0.5625 2.28125 0.6875 4.09375 0.5625 C 6.40625 0.40625 9.109375 -1.65625 12.15625 -6.9375 C 12.125 -7.296875 11.65625 -7.5625 11.40625 -7.546875 Z M 7.453125 -10.0625 C 7.75 -10.09375 7.90625 -9.9375 7.921875 -9.65625 C 8.015625 -8.40625 5.34375 -4.796875 3.296875 -3.890625 C 3.875 -6.4375 6.078125 -9.96875 7.453125 -10.0625 Z M 7.453125 -10.0625 "/></g></g></g><g fill="#ffffff" fill-opacity="1"><g transform="translate(93.40468, 132.532592)"><g><path d="M 3 0.484375 C 5.140625 0.328125 7.796875 -4.890625 8.765625 -6.703125 C 8.734375 -7.0625 8.265625 -7.328125 8.015625 -7.3125 C 6.09375 -3.90625 4.5 -1.625 3.625 -1.5625 C 3.375 -1.546875 3.203125 -1.765625 3.171875 -2.171875 C 3 -4.671875 7.28125 -14.328125 8.5625 -15.1875 C 8.671875 -15.25 8.703125 -15.328125 8.703125 -15.40625 C 8.671875 -15.84375 7.8125 -16.609375 6.953125 -16.546875 C 5.65625 -16.453125 0.515625 -4.984375 0.734375 -1.875 C 0.828125 -0.546875 1.953125 0.546875 3 0.484375 Z M 3 0.484375 "/></g></g></g><g fill="#ffffff" fill-opacity="1"><g transform="translate(99.214536, 132.125061)"><g><path d="M 11.40625 -6.890625 C 11.375 -7.25 10.890625 -7.515625 10.640625 -7.5 C 9.5625 -5.78125 8.390625 -4.890625 7.078125 -4.5 L 7.0625 -4.828125 C 6.875 -7.390625 6.859375 -10.265625 8.234375 -11.25 C 7.640625 -12.21875 6.90625 -12.59375 6.1875 -12.546875 C 5.421875 -12.484375 4.75 -11.984375 4.390625 -11.140625 C 4.15625 -10.59375 2.53125 -7.53125 2.203125 -6.90625 C 2.21875 -6.578125 2.65625 -6.28125 2.953125 -6.296875 C 3.140625 -6.703125 3.96875 -8.15625 4.65625 -9.359375 L 4.796875 -9.28125 C 4.6875 -8.34375 4.546875 -6.4375 4.609375 -4.21875 C 2.84375 -4.296875 1.625 -4.875 1.046875 -4.828125 C 0.28125 -4.78125 -0.21875 -4.234375 -0.171875 -3.515625 C -0.046875 -1.734375 3.09375 0.71875 5.109375 0.578125 C 6.4375 0.484375 7.375 -0.671875 7.28125 -2.1875 L 7.1875 -3.3125 C 8.71875 -3.8125 10.171875 -4.9375 11.40625 -6.890625 Z M 3.921875 -1.296875 C 3.15625 -1.25 1.6875 -2.15625 0.859375 -3.421875 C 1.796875 -3.265625 3.234375 -2.9375 4.65625 -2.9375 L 4.671875 -2.703125 C 4.734375 -1.796875 4.484375 -1.328125 3.921875 -1.296875 Z M 3.921875 -1.296875 "/></g></g></g><g fill="#ffffff" fill-opacity="1"><g transform="translate(144.568986, 130.387592)"><g><path d="M 2.828125 -0.40625 L 0.59375 -15.390625 C 0.582031 -15.546875 0.671875 -15.640625 0.859375 -15.671875 L 2.921875 -15.875 C 3.066406 -15.882812 3.144531 -15.828125 3.15625 -15.703125 L 4.421875 -4.4375 L 6.296875 -15.796875 C 6.316406 -15.890625 6.335938 -15.953125 6.359375 -15.984375 C 6.378906 -16.023438 6.429688 -16.050781 6.515625 -16.0625 L 8.578125 -16.28125 C 8.722656 -16.289062 8.800781 -16.234375 8.8125 -16.109375 L 5.484375 -0.671875 C 5.453125 -0.503906 5.378906 -0.421875 5.265625 -0.421875 L 3.0625 -0.171875 C 2.925781 -0.171875 2.847656 -0.25 2.828125 -0.40625 Z M 2.828125 -0.40625 "/></g></g></g><g fill="#ffffff" fill-opacity="1"><g transform="translate(153.754396, 129.743284)"><g><path d="M 1.765625 -15.5 C 1.773438 -15.582031 1.789062 -15.640625 1.8125 -15.671875 C 1.84375 -15.703125 2.175781 -15.769531 2.8125 -15.875 C 3.457031 -15.988281 4.335938 -16.082031 5.453125 -16.15625 C 6.578125 -16.238281 7.457031 -15.976562 8.09375 -15.375 C 8.726562 -14.769531 9.085938 -13.90625 9.171875 -12.78125 C 9.316406 -10.664062 9.257812 -8.210938 9 -5.421875 C 8.832031 -3.953125 8.492188 -2.835938 7.984375 -2.078125 C 7.515625 -1.390625 6.726562 -0.898438 5.625 -0.609375 C 5.132812 -0.492188 4.53125 -0.394531 3.8125 -0.3125 L 1.328125 -0.046875 C 1.179688 -0.046875 1.101562 -0.109375 1.09375 -0.234375 Z M 4.1875 -13.71875 L 3.71875 -2.734375 C 4.707031 -2.890625 5.382812 -3.128906 5.75 -3.453125 C 6.113281 -3.773438 6.34375 -4.363281 6.4375 -5.21875 C 6.53125 -6.070312 6.597656 -7.226562 6.640625 -8.6875 C 6.691406 -10.15625 6.6875 -11.351562 6.625 -12.28125 C 6.582031 -12.832031 6.421875 -13.234375 6.140625 -13.484375 C 5.859375 -13.734375 5.488281 -13.84375 5.03125 -13.8125 C 4.570312 -13.78125 4.289062 -13.75 4.1875 -13.71875 Z M 4.1875 -13.71875 "/></g></g></g></svg>