<svg xmlns="http://www.w3.org/2000/svg" xmlns:xlink="http://www.w3.org/1999/xlink" width="48" zoomAndPan="magnify" viewBox="0 0 36 36.000001" height="48" preserveAspectRatio="xMidYMid meet" version="1.0"><defs><filter x="0%" y="0%" width="100%" height="100%" id="31603cac64"><feColorMatrix values="0 0 0 0 1 0 0 0 0 1 0 0 0 0 1 0 0 0 1 0" color-interpolation-filters="sRGB"/></filter><g/><clipPath id="fb9f75617d"><path d="M 0.488281 0 L 35.511719 0 L 35.511719 35.027344 L 0.488281 35.027344 Z M 0.488281 0 " clip-rule="nonzero"/></clipPath><mask id="a8e5aa4f38"><g filter="url(#31603cac64)"><rect x="-3.6" width="43.2" fill="#000000" y="-3.6" height="43.200001" fill-opacity="0.6"/></g></mask><clipPath id="70e0b2b4ce"><path d="M 0.296875 1.082031 L 6.585938 1.082031 L 6.585938 9.730469 L 0.296875 9.730469 Z M 0.296875 1.082031 " clip-rule="nonzero"/></clipPath><clipPath id="1a340390c2"><rect x="0" width="7" y="0" height="10"/></clipPath><clipPath id="892e6b5c59"><path d="M 21.5625 3.503906 L 27.851562 3.503906 L 27.851562 12.148438 L 21.5625 12.148438 Z M 21.5625 3.503906 " clip-rule="nonzero"/></clipPath></defs><g clip-path="url(#fb9f75617d)"><path fill="#ffffff" d="M 0.488281 0 L 35.511719 0 L 35.511719 35.027344 L 0.488281 35.027344 Z M 0.488281 0 " fill-opacity="1" fill-rule="nonzero"/><path fill="#ffffff" d="M 0.488281 0 L 35.511719 0 L 35.511719 35.027344 L 0.488281 35.027344 Z M 0.488281 0 " fill-opacity="1" fill-rule="nonzero"/><path fill="#4c8c2b" d="M 0.488281 0 L 35.511719 0 L 35.511719 35.027344 L 0.488281 35.027344 Z M 0.488281 0 " fill-opacity="1" fill-rule="nonzero"/></g><g mask="url(#a8e5aa4f38)"><g transform="matrix(1, 0, 0, 1, 22, 3)"><g clip-path="url(#1a340390c2)"><g clip-path="url(#70e0b2b4ce)"><path fill="#ffffff" d="M 3.4375 1.082031 C 1.710938 1.082031 0.3125 2.53125 0.3125 4.320312 C 0.3125 6.113281 1.445312 6.242188 3.4375 9.679688 C 5.417969 6.242188 6.5625 6.113281 6.5625 4.320312 C 6.5625 2.53125 5.160156 1.082031 3.4375 1.082031 Z M 3.4375 5.546875 C 3.277344 5.542969 3.125 5.511719 2.976562 5.445312 C 2.832031 5.382812 2.703125 5.292969 2.59375 5.179688 C 2.480469 5.0625 2.398438 4.933594 2.339844 4.785156 C 2.28125 4.636719 2.253906 4.480469 2.253906 4.320312 C 2.253906 4.164062 2.28125 4.007812 2.339844 3.859375 C 2.398438 3.710938 2.480469 3.582031 2.59375 3.464844 C 2.703125 3.351562 2.832031 3.261719 2.976562 3.199219 C 3.125 3.136719 3.277344 3.101562 3.4375 3.097656 C 3.59375 3.101562 3.75 3.136719 3.894531 3.199219 C 4.039062 3.261719 4.167969 3.351562 4.277344 3.464844 C 4.390625 3.582031 4.472656 3.710938 4.53125 3.859375 C 4.589844 4.007812 4.621094 4.164062 4.617188 4.320312 C 4.621094 4.480469 4.589844 4.636719 4.53125 4.785156 C 4.476562 4.933594 4.390625 5.0625 4.28125 5.179688 C 4.167969 5.292969 4.039062 5.382812 3.894531 5.445312 C 3.75 5.511719 3.59375 5.542969 3.4375 5.546875 Z M 3.4375 5.546875 " fill-opacity="1" fill-rule="nonzero"/></g></g></g></g><g fill="#ffffff" fill-opacity="0.4"><g transform="translate(11.326618, 31.183147)"><g><path d="M 1.171875 0.203125 C 0.953125 0.203125 0.84375 0.09375 0.84375 -0.125 L 1.171875 -2.890625 C 1.203125 -3.085938 1.316406 -3.195312 1.515625 -3.21875 C 2.890625 -3.351562 3.796875 -3.566406 4.234375 -3.859375 C 4.679688 -4.160156 4.90625 -4.753906 4.90625 -5.640625 C 4.90625 -6.523438 4.679688 -7.675781 4.234375 -9.09375 C 3.785156 -10.519531 3.492188 -11.46875 3.359375 -11.9375 C 2.929688 -13.4375 2.71875 -14.664062 2.71875 -15.625 C 2.71875 -16.59375 2.875 -17.414062 3.1875 -18.09375 C 3.5 -18.769531 3.941406 -19.316406 4.515625 -19.734375 C 5.628906 -20.503906 7.128906 -20.890625 9.015625 -20.890625 C 9.253906 -20.890625 9.375 -20.78125 9.375 -20.5625 L 9.015625 -17.8125 C 8.972656 -17.59375 8.863281 -17.472656 8.6875 -17.453125 C 6.96875 -17.335938 6.109375 -16.832031 6.109375 -15.9375 C 6.109375 -15.101562 6.472656 -13.46875 7.203125 -11.03125 C 7.929688 -8.59375 8.296875 -6.84375 8.296875 -5.78125 C 8.296875 -1.789062 5.921875 0.203125 1.171875 0.203125 Z M 1.171875 0.203125 "/></g></g></g><g fill="#ffffff" fill-opacity="1"><g transform="translate(10.124702, 29.981231)"><g><path d="M 1.171875 0.203125 C 0.953125 0.203125 0.84375 0.09375 0.84375 -0.125 L 1.171875 -2.890625 C 1.203125 -3.085938 1.316406 -3.195312 1.515625 -3.21875 C 2.890625 -3.351562 3.796875 -3.566406 4.234375 -3.859375 C 4.679688 -4.160156 4.90625 -4.753906 4.90625 -5.640625 C 4.90625 -6.523438 4.679688 -7.675781 4.234375 -9.09375 C 3.785156 -10.519531 3.492188 -11.46875 3.359375 -11.9375 C 2.929688 -13.4375 2.71875 -14.664062 2.71875 -15.625 C 2.71875 -16.59375 2.875 -17.414062 3.1875 -18.09375 C 3.5 -18.769531 3.941406 -19.316406 4.515625 -19.734375 C 5.628906 -20.503906 7.128906 -20.890625 9.015625 -20.890625 C 9.253906 -20.890625 9.375 -20.78125 9.375 -20.5625 L 9.015625 -17.8125 C 8.972656 -17.59375 8.863281 -17.472656 8.6875 -17.453125 C 6.96875 -17.335938 6.109375 -16.832031 6.109375 -15.9375 C 6.109375 -15.101562 6.472656 -13.46875 7.203125 -11.03125 C 7.929688 -8.59375 8.296875 -6.84375 8.296875 -5.78125 C 8.296875 -1.789062 5.921875 0.203125 1.171875 0.203125 Z M 1.171875 0.203125 "/></g></g></g><g clip-path="url(#892e6b5c59)"><path fill="#ffffff" d="M 24.703125 3.503906 C 22.976562 3.503906 21.578125 4.953125 21.578125 6.742188 C 21.578125 8.53125 22.710938 8.660156 24.703125 12.101562 C 26.683594 8.660156 27.828125 8.53125 27.828125 6.742188 C 27.828125 4.953125 26.425781 3.503906 24.703125 3.503906 Z M 24.703125 7.96875 C 24.542969 7.964844 24.390625 7.929688 24.242188 7.867188 C 24.097656 7.804688 23.96875 7.714844 23.859375 7.597656 C 23.746094 7.484375 23.664062 7.351562 23.605469 7.203125 C 23.546875 7.054688 23.519531 6.902344 23.519531 6.742188 C 23.519531 6.582031 23.546875 6.429688 23.605469 6.28125 C 23.664062 6.132812 23.746094 6 23.859375 5.886719 C 23.96875 5.773438 24.097656 5.683594 24.242188 5.621094 C 24.390625 5.554688 24.542969 5.523438 24.703125 5.519531 C 24.859375 5.523438 25.015625 5.554688 25.160156 5.621094 C 25.304688 5.683594 25.433594 5.773438 25.542969 5.886719 C 25.65625 6 25.738281 6.132812 25.796875 6.28125 C 25.855469 6.429688 25.886719 6.582031 25.882812 6.742188 C 25.886719 6.902344 25.855469 7.054688 25.796875 7.203125 C 25.742188 7.351562 25.65625 7.484375 25.546875 7.597656 C 25.433594 7.714844 25.304688 7.804688 25.160156 7.867188 C 25.015625 7.929688 24.859375 7.964844 24.703125 7.96875 Z M 24.703125 7.96875 " fill-opacity="1" fill-rule="nonzero"/></g></svg>